<?xml version="1.0" encoding="UTF-8"?>
<svg xmlns="http://www.w3.org/2000/svg" viewBox="0 0 950 700">
  <defs>
    <linearGradient id="normalGrad" x1="0%" y1="0%" x2="0%" y2="100%">
      <stop offset="0%" style="stop-color:#27ae60"/>
      <stop offset="100%" style="stop-color:#1e8449"/>
    </linearGradient>
    <linearGradient id="attackGrad" x1="0%" y1="0%" x2="0%" y2="100%">
      <stop offset="0%" style="stop-color:#e74c3c"/>
      <stop offset="100%" style="stop-color:#c0392b"/>
    </linearGradient>
    <linearGradient id="formGrad" x1="0%" y1="0%" x2="0%" y2="100%">
      <stop offset="0%" style="stop-color:#3498db"/>
      <stop offset="100%" style="stop-color:#2980b9"/>
    </linearGradient>
    <filter id="shadow" x="-20%" y="-20%" width="140%" height="140%">
      <feDropShadow dx="2" dy="2" stdDeviation="3" flood-opacity="0.2"/>
    </filter>
    <marker id="arrowGreen" markerWidth="10" markerHeight="7" refX="9" refY="3.5" orient="auto">
      <polygon points="0 0, 10 3.5, 0 7" fill="#27ae60"/>
    </marker>
    <marker id="arrowRed" markerWidth="10" markerHeight="7" refX="9" refY="3.5" orient="auto">
      <polygon points="0 0, 10 3.5, 0 7" fill="#e74c3c"/>
    </marker>
  </defs>
  
  <!-- Background -->
  <rect width="950" height="700" fill="#f8fafc"/>
  
  <!-- Title -->
  <text x="475" y="35" font-family="Arial, sans-serif" font-size="22" font-weight="bold" fill="#1e3a5f" text-anchor="middle">Diagram 12.7: Bypass Authentication dengan SQL Injection</text>
  
  <!-- Normal Login Section -->
  <rect x="25" y="60" width="440" height="280" rx="10" fill="#e8f8f5" stroke="#27ae60" stroke-width="2"/>
  <rect x="25" y="60" width="440" height="35" rx="10" fill="url(#normalGrad)"/>
  <rect x="25" y="85" width="440" height="10" fill="url(#normalGrad)"/>
  <text x="245" y="85" font-family="Arial, sans-serif" font-size="14" fill="white" text-anchor="middle" font-weight="bold">✓ Login Normal (Aman)</text>
  
  <!-- Normal Login Form -->
  <g transform="translate(50, 110)" filter="url(#shadow)">
    <rect x="0" y="0" width="160" height="120" rx="8" fill="white" stroke="#3498db" stroke-width="2"/>
    <rect x="0" y="0" width="160" height="25" rx="8" fill="url(#formGrad)"/>
    <rect x="0" y="17" width="160" height="8" fill="url(#formGrad)"/>
    <text x="80" y="18" font-family="Arial, sans-serif" font-size="10" fill="white" text-anchor="middle" font-weight="bold">Form Login</text>
    
    <text x="15" y="45" font-family="Arial, sans-serif" font-size="9" fill="#333">Username:</text>
    <rect x="15" y="50" width="130" height="18" rx="2" fill="#ecf0f1" stroke="#bdc3c7"/>
    <text x="25" y="63" font-family="Arial, sans-serif" font-size="9" fill="#27ae60">admin</text>
    
    <text x="15" y="82" font-family="Arial, sans-serif" font-size="9" fill="#333">Password:</text>
    <rect x="15" y="87" width="130" height="18" rx="2" fill="#ecf0f1" stroke="#bdc3c7"/>
    <text x="25" y="100" font-family="Arial, sans-serif" font-size="9" fill="#27ae60">••••••••</text>
  </g>
  
  <!-- Arrow -->
  <line x1="215" y1="170" x2="245" y2="170" stroke="#27ae60" stroke-width="2" marker-end="url(#arrowGreen)"/>
  
  <!-- Normal Query Box -->
  <g transform="translate(250, 110)">
    <rect x="0" y="0" width="190" height="120" rx="5" fill="white" stroke="#27ae60" stroke-width="2"/>
    <text x="95" y="20" font-family="Arial, sans-serif" font-size="10" fill="#333" text-anchor="middle" font-weight="bold">Query yang Dieksekusi:</text>
    <rect x="10" y="30" width="170" height="75" rx="3" fill="#2c3e50"/>
    <text x="95" y="50" font-family="Courier New, monospace" font-size="8" fill="#ecf0f1" text-anchor="middle">SELECT * FROM users</text>
    <text x="95" y="65" font-family="Courier New, monospace" font-size="8" fill="#ecf0f1" text-anchor="middle">WHERE username='admin'</text>
    <text x="95" y="80" font-family="Courier New, monospace" font-size="8" fill="#ecf0f1" text-anchor="middle">AND password=</text>
    <text x="95" y="95" font-family="Courier New, monospace" font-size="8" fill="#27ae60" text-anchor="middle">'correct_pass'</text>
  </g>
  
  <!-- Normal Result -->
  <g transform="translate(100, 250)">
    <rect x="0" y="0" width="280" height="70" rx="5" fill="#d5f5e3" stroke="#27ae60" stroke-width="2"/>
    <text x="140" y="20" font-family="Arial, sans-serif" font-size="11" fill="#1e8449" text-anchor="middle" font-weight="bold">✓ Hasil: Autentikasi Berhasil</text>
    <text x="140" y="40" font-family="Arial, sans-serif" font-size="10" fill="#333" text-anchor="middle">Query mengembalikan 1 baris</text>
    <text x="140" y="55" font-family="Arial, sans-serif" font-size="10" fill="#333" text-anchor="middle">karena kredensial VALID</text>
  </g>
  
  <!-- Attack Login Section -->
  <rect x="485" y="60" width="440" height="280" rx="10" fill="#fdedec" stroke="#e74c3c" stroke-width="2"/>
  <rect x="485" y="60" width="440" height="35" rx="10" fill="url(#attackGrad)"/>
  <rect x="485" y="85" width="440" height="10" fill="url(#attackGrad)"/>
  <text x="705" y="85" font-family="Arial, sans-serif" font-size="14" fill="white" text-anchor="middle" font-weight="bold">⚠️ Bypass dengan SQL Injection</text>
  
  <!-- Attack Login Form -->
  <g transform="translate(510, 110)" filter="url(#shadow)">
    <rect x="0" y="0" width="160" height="120" rx="8" fill="white" stroke="#e74c3c" stroke-width="2"/>
    <rect x="0" y="0" width="160" height="25" rx="8" fill="url(#attackGrad)"/>
    <rect x="0" y="17" width="160" height="8" fill="url(#attackGrad)"/>
    <text x="80" y="18" font-family="Arial, sans-serif" font-size="10" fill="white" text-anchor="middle" font-weight="bold">Form Login</text>
    
    <text x="15" y="45" font-family="Arial, sans-serif" font-size="9" fill="#333">Username:</text>
    <rect x="15" y="50" width="130" height="18" rx="2" fill="#fef5e7" stroke="#e74c3c"/>
    <text x="25" y="63" font-family="Arial, sans-serif" font-size="8" fill="#e74c3c">admin'--</text>
    
    <text x="15" y="82" font-family="Arial, sans-serif" font-size="9" fill="#333">Password:</text>
    <rect x="15" y="87" width="130" height="18" rx="2" fill="#fef5e7" stroke="#e74c3c"/>
    <text x="25" y="100" font-family="Arial, sans-serif" font-size="9" fill="#e74c3c">apapun</text>
  </g>
  
  <!-- Arrow -->
  <line x1="675" y1="170" x2="705" y2="170" stroke="#e74c3c" stroke-width="2" marker-end="url(#arrowRed)"/>
  
  <!-- Attack Query Box -->
  <g transform="translate(710, 110)">
    <rect x="0" y="0" width="190" height="120" rx="5" fill="white" stroke="#e74c3c" stroke-width="2"/>
    <text x="95" y="20" font-family="Arial, sans-serif" font-size="10" fill="#333" text-anchor="middle" font-weight="bold">Query yang Dieksekusi:</text>
    <rect x="10" y="30" width="170" height="75" rx="3" fill="#2c3e50"/>
    <text x="95" y="50" font-family="Courier New, monospace" font-size="8" fill="#ecf0f1" text-anchor="middle">SELECT * FROM users</text>
    <text x="95" y="65" font-family="Courier New, monospace" font-size="8" fill="#ecf0f1" text-anchor="middle">WHERE username='admin'</text>
    <text x="95" y="80" font-family="Courier New, monospace" font-size="8" fill="#e74c3c" text-anchor="middle">--'AND password=</text>
    <text x="95" y="95" font-family="Courier New, monospace" font-size="8" fill="#666" text-anchor="middle">'apapun' (diabaikan)</text>
  </g>
  
  <!-- Attack Result -->
  <g transform="translate(560, 250)">
    <rect x="0" y="0" width="280" height="70" rx="5" fill="#f9ebea" stroke="#e74c3c" stroke-width="2"/>
    <text x="140" y="20" font-family="Arial, sans-serif" font-size="11" fill="#c0392b" text-anchor="middle" font-weight="bold">⚠️ Hasil: Bypass Berhasil!</text>
    <text x="140" y="40" font-family="Arial, sans-serif" font-size="10" fill="#333" text-anchor="middle">Password check DIABAIKAN</text>
    <text x="140" y="55" font-family="Arial, sans-serif" font-size="10" fill="#333" text-anchor="middle">karena dijadikan komentar (--)</text>
  </g>
  
  <!-- Common Payloads Section -->
  <rect x="25" y="360" width="900" height="170" rx="10" fill="white" stroke="#1e3a5f" stroke-width="2"/>
  <text x="475" y="385" font-family="Arial, sans-serif" font-size="14" fill="#1e3a5f" text-anchor="middle" font-weight="bold">Payload Bypass Authentication yang Umum</text>
  
  <!-- Payload Table -->
  <g transform="translate(50, 400)">
    <!-- Header -->
    <rect x="0" y="0" width="400" height="25" fill="#1e3a5f"/>
    <text x="200" y="17" font-family="Arial, sans-serif" font-size="11" fill="white" text-anchor="middle" font-weight="bold">Payload</text>
    <rect x="400" y="0" width="450" height="25" fill="#1e3a5f"/>
    <text x="625" y="17" font-family="Arial, sans-serif" font-size="11" fill="white" text-anchor="middle" font-weight="bold">Penjelasan</text>
    
    <!-- Row 1 -->
    <rect x="0" y="25" width="400" height="25" fill="#ecf0f1"/>
    <text x="200" y="42" font-family="Courier New, monospace" font-size="10" fill="#e74c3c" text-anchor="middle">' OR '1'='1</text>
    <rect x="400" y="25" width="450" height="25" fill="#ecf0f1"/>
    <text x="625" y="42" font-family="Arial, sans-serif" font-size="10" fill="#333" text-anchor="middle">Membuat kondisi selalu TRUE dengan OR</text>
    
    <!-- Row 2 -->
    <rect x="0" y="50" width="400" height="25" fill="#fff"/>
    <text x="200" y="67" font-family="Courier New, monospace" font-size="10" fill="#e74c3c" text-anchor="middle">admin'--</text>
    <rect x="400" y="50" width="450" height="25" fill="#fff"/>
    <text x="625" y="67" font-family="Arial, sans-serif" font-size="10" fill="#333" text-anchor="middle">Menonaktifkan pengecekan password dengan komentar</text>
    
    <!-- Row 3 -->
    <rect x="0" y="75" width="400" height="25" fill="#ecf0f1"/>
    <text x="200" y="92" font-family="Courier New, monospace" font-size="10" fill="#e74c3c" text-anchor="middle">' OR 1=1#</text>
    <rect x="400" y="75" width="450" height="25" fill="#ecf0f1"/>
    <text x="625" y="92" font-family="Arial, sans-serif" font-size="10" fill="#333" text-anchor="middle">Variasi untuk MySQL (# sebagai komentar)</text>
    
    <!-- Row 4 -->
    <rect x="0" y="100" width="400" height="25" fill="#fff"/>
    <text x="200" y="117" font-family="Courier New, monospace" font-size="10" fill="#e74c3c" text-anchor="middle">') OR ('1'='1</text>
    <rect x="400" y="100" width="450" height="25" fill="#fff"/>
    <text x="625" y="117" font-family="Arial, sans-serif" font-size="10" fill="#333" text-anchor="middle">Untuk query dengan tanda kurung</text>
  </g>
  
  <!-- Impact Section -->
  <rect x="25" y="550" width="900" height="80" rx="10" fill="#fdedec" stroke="#e74c3c" stroke-width="2"/>
  <text x="475" y="575" font-family="Arial, sans-serif" font-size="14" fill="#c0392b" text-anchor="middle" font-weight="bold">⚠️ Dampak Bypass Authentication</text>
  
  <g transform="translate(50, 590)">
    <rect x="0" y="0" width="200" height="30" rx="5" fill="#e74c3c"/>
    <text x="100" y="20" font-family="Arial, sans-serif" font-size="10" fill="white" text-anchor="middle" font-weight="bold">🔓 Akses Admin</text>
  </g>
  
  <g transform="translate(270, 590)">
    <rect x="0" y="0" width="200" height="30" rx="5" fill="#f39c12"/>
    <text x="100" y="20" font-family="Arial, sans-serif" font-size="10" fill="white" text-anchor="middle" font-weight="bold">📊 Akses Data Sensitif</text>
  </g>
  
  <g transform="translate(490, 590)">
    <rect x="0" y="0" width="200" height="30" rx="5" fill="#9b59b6"/>
    <text x="100" y="20" font-family="Arial, sans-serif" font-size="10" fill="white" text-anchor="middle" font-weight="bold">⚙️ Kontrol Sistem</text>
  </g>
  
  <g transform="translate(710, 590)">
    <rect x="0" y="0" width="190" height="30" rx="5" fill="#2c3e50"/>
    <text x="95" y="20" font-family="Arial, sans-serif" font-size="10" fill="white" text-anchor="middle" font-weight="bold">💰 Kerugian Finansial</text>
  </g>
  
  <!-- Footer -->
  <text x="475" y="680" font-family="Arial, sans-serif" font-size="10" fill="#666" text-anchor="middle">Modul 12 - SQL Injection | Pengantar Keamanan Siber</text>
</svg>
